#!OML:ASF I:\golf\golf\golf 2\Subject 1\2002-09-07\Subject1.ASF
:FULLY-SPECIFIED
:DEGREES
418
root 0.134001 15.5613 -4.83261 20.0411 7.3141 -0.928837
lowerback 29.1237 6.61421 1.56806
upperback 13.0861 9.06806 6.84288
thorax -2.08986 4.29547 3.88795
lowerneck -18.1659 -6.80139 -2.80143
upperneck 18.2672 -7.9199 -2.66252
head 8.69851 -4.16576 -1.44419
rclavicle 6.99722e-014 -4.29375e-014
rhumerus 20.0097 5.23258 -60.4397
rradius 32.6697
rwrist 1.33298
rhand -25.0091 12.0954
rfingers 7.12502
rthumb 1.50278 -17.879
lclavicle 6.99722e-014 -4.29375e-014
lhumerus -34.1627 -38.1323 100.223
lradius 81.0815
lwrist 4.09206
lhand -36.2732 15.3925
lfingers 7.12502
lthumb -9.37345 45.164
rfemur -68.6597 -27.4905 35.5063
rtibia 78.3352
rfoot -22.3807 -0.267112
rtoes 5.26861
lfemur -66.7902 10.6526 -19.2017
ltibia 74.9542
lfoot -17.1645 -11.9305
ltoes -9.05858
419
root 0.124759 15.6884 -4.83045 20.0139 7.40846 -0.811887
lowerback 28.6227 6.47688 1.38456
upperback 12.9133 8.85402 6.8126
thorax -2.06686 4.19282 4.05208
lowerneck -18.0682 -6.75529 -2.92691
upperneck 18.1888 -7.86875 -2.47347
head 8.66867 -4.13093 -1.34933
rclavicle 5.725e-014 2.54444e-014
rhumerus 18.8554 5.69974 -60.6075
rradius 33.4186
rwrist 0.1758
rhand -25.316 12.1864
rfingers 7.12502
rthumb 1.20634 -17.7899
lclavicle 5.725e-014 2.54444e-014
lhumerus -34.2237 -37.8988 100.352
lradius 80.6784
lwrist 4.97673
lhand -35.3306 15.4956
lfingers 7.12502
lthumb -8.46387 45.306
rfemur -67.3549 -27.0563 34.9751
rtibia 76.586
rfoot -22.2439 -0.613161
rtoes 5.0125
lfemur -65.7496 10.4622 -19.2738
ltibia 73.311
lfoot -16.7854 -11.736
ltoes -9.4812
420
root 0.114006 15.8107 -4.82299 19.9371 7.39088 -0.76483
lowerback 28.082 6.43961 1.17029
upperback 12.7477 8.75625 6.79307
thorax -2.02866 4.14532 4.21181
lowerneck -17.959 -6.75666 -3.0821
upperneck 18.1424 -7.89774 -2.17563
head 8.65358 -4.12366 -1.22436
rclavicle 1.59028e-014 -1.11319e-014
rhumerus 17.613 6.03226 -60.8229
rradius 33.9965
rwrist -0.650179
rhand -25.9625 12.2686
rfingers 7.12502
rthumb 0.581947 -17.7104
lclavicle 1.59028e-014 -1.11319e-014
lhumerus -34.2899 -37.8171 100.495
lradius 80.2203
lwrist 5.91625
lhand -34.2966 15.9337
lfingers 7.12502
lthumb -7.46582 45.7819
rfemur -65.9324 -26.4413 34.4118
rtibia 74.842
rfoot -22.0611 -1.06863
rtoes 4.26778
lfemur -64.6285 10.4087 -19.2743
ltibia 71.6892
lfoot -16.4962 -11.5351
ltoes -9.76745
421
root 0.106815 15.9245 -4.81229 19.8183 7.29323 -0.825321
lowerback 27.4488 6.4458 0.992745
upperback 12.6454 8.71856 6.82472
thorax -1.8811 4.12694 4.40115
lowerneck -18.0554 -6.75365 -3.20274
upperneck 18.1567 -7.89604 -1.99922
head 8.6887 -4.11263 -1.15094
rclavicle 3.18055e-015 -3.81667e-014
rhumerus 16.4296 6.35207 -60.9857
rradius 34.4222
rwrist -1.36808
rhand -26.5757 12.4141
rfingers 7.12502
rthumb -0.0103192 -17.5656
lclavicle 3.18055e-015 -3.81667e-014
lhumerus -34.283 -37.7747 100.648
lradius 79.6982
lwrist 6.85546
lhand -33.2277 16.3424
lfingers 7.12502
lthumb -6.43403 46.2247
rfemur -64.4582 -25.7429 33.9162
rtibia 73.107
rfoot -21.7408 -1.36362
rtoes 4.44113
lfemur -63.4331 10.3785 -19.1213
ltibia 70.0726
lfoot -16.333 -11.2618
ltoes -9.99071
422
root 0.102902 16.0288 -4.80371 19.7221 7.25839 -0.948571
lowerback 26.7771 6.38052 0.892106
upperback 12.5619 8.61002 6.88865
thorax -1.68003 4.07535 4.60893
lowerneck -18.4214 -6.72331 -3.40186
upperneck 18.3593 -7.81504 -1.85651
head 8.83798 -4.07252 -1.0815
rclavicle -1.08139e-013 3.18055e-015
rhumerus 15.4051 6.6794 -61.1688
rradius 34.8039
rwrist -2.23085
rhand -27.0577 12.6247
rfingers 7.12502
rthumb -0.47577 -17.3545
lclavicle -1.08139e-013 3.18055e-015
lhumerus -34.1362 -37.4955 100.718
lradius 79.0933
lwrist 7.45954
lhand -31.7573 16.6991
lfingers 7.12502
lthumb -5.01439 46.6197
rfemur -63.1054 -25.1005 33.5573
rtibia 71.393
rfoot -21.3946 -1.66325
rtoes 4.4247
lfemur -62.3043 10.2395 -18.8642
ltibia 68.4438
lfoot -16.1047 -10.9541
ltoes -10.6405
423
root 0.0979574 16.1371 -4.79637 19.635 7.33475 -1.03852
lowerback 26.1859 6.22736 0.867215
upperback 12.4071 8.41163 6.89233
thorax -1.56566 3.98373 4.72222
lowerneck -18.6552 -6.65797 -3.5128
upperneck 18.396 -7.70576 -1.76575
head 8.90041 -4.01981 -1.02944
rclavicle -3.18055e-014 2.70347e-014
rhumerus 14.3357 6.95548 -61.5198
rradius 35.1636
rwrist -3.18378
rhand -27.6051 12.8925
rfingers 7.12502
rthumb -1.00448 -17.0849
lclavicle -3.18055e-014 2.70347e-014
lhumerus -33.9293 -37.0814 100.657
lradius 78.2833
lwrist 7.64145
lhand -30.4787 16.7675
lfingers 7.12502
lthumb -3.77974 46.7137
rfemur -61.779 -24.5425 33.2228
rtibia 69.6691
rfoot -21.3345 -2.25088
rtoes 2.54
lfemur -61.1928 9.982 -18.6036
ltibia 66.7742
lfoot -15.695 -10.7355
ltoes -10.9281
424
root 0.0900888 16.2476 -4.78681 19.5533 7.47571 -0.960992
lowerback 25.6466 6.09021 0.812868
upperback 12.1654 8.22851 6.79106
thorax -1.55962 3.90214 4.72096
lowerneck -18.6055 -6.61452 -3.32703
upperneck 18.0999 -7.69705 -1.80451
head 8.77955 -4.00951 -1.06067
rclavicle 2.38542e-014 2.38542e-014
rhumerus 12.9634 7.04103 -61.984
rradius 35.6111
rwrist -4.22711
rhand -27.9709 13.0395
rfingers 7.12502
rthumb -1.35779 -16.9359
lclavicle 2.38542e-014 2.38542e-014
lhumerus -33.9224 -36.8832 100.629
lradius 77.5361
lwrist 7.96042
lhand -29.1111 16.8498
lfingers 7.12502
lthumb -2.45897 46.8153
rfemur -60.3922 -24.0725 32.7302
rtibia 67.9299
rfoot -21.3624 -2.79683
rtoes 0.829829
lfemur -60.0447 9.59612 -18.469
ltibia 65.0873
lfoot -15.2817 -10.6191
ltoes -10.2646
425
root 0.0817342 16.3527 -4.77507 19.4379 7.56484 -0.837045
lowerback 25.0953 6.04541 0.659064
upperback 11.9155 8.14167 6.69824
thorax -1.57687 3.86446 4.75662
lowerneck -18.4668 -6.67035 -3.17151
upperneck 17.7706 -7.84848 -1.70492
head 8.63994 -4.06144 -1.05743
rclavicle 6.04305e-014 -2.54444e-014
rhumerus 11.481 6.76969 -62.5244
rradius 36.0117
rwrist -5.27746
rhand -27.9055 12.9518
rfingers 7.12502
rthumb -1.29462 -17.024
lclavicle 6.04305e-014 -2.54444e-014
lhumerus -34.1549 -36.889 100.779
lradius 77.1947
lwrist 8.8511
lhand -27.4067 18.0537
lfingers 7.12502
lthumb -0.812849 48.0319
rfemur -58.9573 -23.589 32.159
rtibia 66.2111
rfoot -21.3035 -3.1416
rtoes 0.43419
lfemur -58.838 9.20088 -18.3553
ltibia 63.4243
lfoot -15.0595 -10.5501
ltoes -9.49487
426
root 0.0752906 16.4528 -4.76385 19.2612 7.67337 -0.815405
lowerback 24.5605 5.9915 0.613974
upperback 11.6784 8.06712 6.62966
thorax -1.57521 3.83525 4.75435
lowerneck -18.3749 -6.75325 -3.02448
upperneck 17.4634 -8.03597 -1.58181
head 8.51815 -4.12884 -1.05179
rclavicle -1.59028e-015 -1.43125e-014
rhumerus 10.0488 6.28553 -63.158
rradius 36.2623
rwrist -6.2318
rhand -27.7389 13.0254
rfingers 7.12502
rthumb -1.13377 -16.9514
lclavicle -1.59028e-015 -1.43125e-014
lhumerus -34.3945 -36.9376 100.928
lradius 76.8675
lwrist 9.88644
lhand -24.7041 20.4595
lfingers 7.12502
lthumb 1.79737 50.4317
rfemur -57.5224 -23.1112 31.7162
rtibia 64.5366
rfoot -21.2409 -3.6531
rtoes -0.147815
lfemur -57.5964 8.82353 -18.12
ltibia 61.7952
lfoot -14.9377 -10.4691
ltoes -8.18657
